<mxfile host="app.diagrams.net" modified="2022-11-23T02:09:24.987Z" agent="5.0 (Windows NT 10.0; Win64; x64) AppleWebKit/537.36 (KHTML, like Gecko) Chrome/107.0.0.0 Safari/537.36" version="20.6.0" etag="Rc5EHYe6RyuDxpWsmwMG" type="github">
  <diagram id="7Ke01fLu8o_ywNRLQE2K" name="Página-1">
    <mxGraphModel dx="2031" dy="1123" grid="1" gridSize="10" guides="1" tooltips="1" connect="1" arrows="1" fold="1" page="1" pageScale="1" pageWidth="827" pageHeight="1169" math="0" shadow="0">
      <root>
        <mxCell id="0" />
        <mxCell id="1" parent="0" />
        <mxCell id="Iq9K8GC8jxZtn9OJHGq8-1" value="Paginas web" style="swimlane;whiteSpace=wrap;html=1;" vertex="1" parent="1">
          <mxGeometry x="20" y="95" width="690" height="490" as="geometry" />
        </mxCell>
        <mxCell id="Iq9K8GC8jxZtn9OJHGq8-6" style="edgeStyle=orthogonalEdgeStyle;rounded=0;orthogonalLoop=1;jettySize=auto;html=1;entryX=0.5;entryY=0;entryDx=0;entryDy=0;" edge="1" parent="Iq9K8GC8jxZtn9OJHGq8-1" source="Iq9K8GC8jxZtn9OJHGq8-4" target="Iq9K8GC8jxZtn9OJHGq8-5">
          <mxGeometry relative="1" as="geometry" />
        </mxCell>
        <mxCell id="Iq9K8GC8jxZtn9OJHGq8-4" value="index.html" style="shape=module;align=left;spacingLeft=20;align=center;verticalAlign=top;" vertex="1" parent="Iq9K8GC8jxZtn9OJHGq8-1">
          <mxGeometry x="250" y="70" width="100" height="50" as="geometry" />
        </mxCell>
        <mxCell id="Iq9K8GC8jxZtn9OJHGq8-14" style="edgeStyle=orthogonalEdgeStyle;rounded=0;orthogonalLoop=1;jettySize=auto;html=1;entryX=1;entryY=0.5;entryDx=0;entryDy=0;" edge="1" parent="Iq9K8GC8jxZtn9OJHGq8-1" source="Iq9K8GC8jxZtn9OJHGq8-5" target="Iq9K8GC8jxZtn9OJHGq8-13">
          <mxGeometry relative="1" as="geometry" />
        </mxCell>
        <mxCell id="Iq9K8GC8jxZtn9OJHGq8-5" value="login.html" style="shape=module;align=left;spacingLeft=20;align=center;verticalAlign=top;" vertex="1" parent="Iq9K8GC8jxZtn9OJHGq8-1">
          <mxGeometry x="250" y="160" width="100" height="50" as="geometry" />
        </mxCell>
        <mxCell id="Iq9K8GC8jxZtn9OJHGq8-8" value="configuracaoAndares.html" style="shape=module;align=left;spacingLeft=20;align=center;verticalAlign=top;" vertex="1" parent="Iq9K8GC8jxZtn9OJHGq8-1">
          <mxGeometry x="255" y="250" width="170" height="50" as="geometry" />
        </mxCell>
        <mxCell id="Iq9K8GC8jxZtn9OJHGq8-10" value="andaresVip.html" style="shape=module;align=left;spacingLeft=20;align=center;verticalAlign=top;" vertex="1" parent="Iq9K8GC8jxZtn9OJHGq8-1">
          <mxGeometry x="180" y="375" width="140" height="50" as="geometry" />
        </mxCell>
        <mxCell id="Iq9K8GC8jxZtn9OJHGq8-9" style="edgeStyle=orthogonalEdgeStyle;rounded=0;orthogonalLoop=1;jettySize=auto;html=1;entryX=0.5;entryY=0;entryDx=0;entryDy=0;exitX=0.5;exitY=1;exitDx=0;exitDy=0;" edge="1" parent="Iq9K8GC8jxZtn9OJHGq8-1" source="Iq9K8GC8jxZtn9OJHGq8-8" target="Iq9K8GC8jxZtn9OJHGq8-10">
          <mxGeometry relative="1" as="geometry">
            <mxPoint x="450" y="275" as="targetPoint" />
            <mxPoint x="430" y="275" as="sourcePoint" />
          </mxGeometry>
        </mxCell>
        <mxCell id="Iq9K8GC8jxZtn9OJHGq8-12" value="configuracaoElevadores.html" style="shape=module;align=left;spacingLeft=20;align=center;verticalAlign=top;" vertex="1" parent="Iq9K8GC8jxZtn9OJHGq8-1">
          <mxGeometry x="430" y="95" width="190" height="50" as="geometry" />
        </mxCell>
        <mxCell id="Iq9K8GC8jxZtn9OJHGq8-13" value="registroLogs.html" style="shape=module;align=left;spacingLeft=20;align=center;verticalAlign=top;" vertex="1" parent="Iq9K8GC8jxZtn9OJHGq8-1">
          <mxGeometry x="10" y="160" width="170" height="50" as="geometry" />
        </mxCell>
        <mxCell id="Iq9K8GC8jxZtn9OJHGq8-11" style="edgeStyle=orthogonalEdgeStyle;rounded=0;orthogonalLoop=1;jettySize=auto;html=1;entryX=0;entryY=0;entryDx=0;entryDy=15;entryPerimeter=0;" edge="1" parent="Iq9K8GC8jxZtn9OJHGq8-1" source="Iq9K8GC8jxZtn9OJHGq8-5" target="Iq9K8GC8jxZtn9OJHGq8-12">
          <mxGeometry relative="1" as="geometry">
            <mxPoint x="460" y="185" as="targetPoint" />
            <Array as="points">
              <mxPoint x="400" y="185" />
              <mxPoint x="400" y="110" />
            </Array>
          </mxGeometry>
        </mxCell>
        <mxCell id="Iq9K8GC8jxZtn9OJHGq8-17" value="cadastrarUsuario.html" style="shape=module;align=left;spacingLeft=20;align=center;verticalAlign=top;" vertex="1" parent="Iq9K8GC8jxZtn9OJHGq8-1">
          <mxGeometry x="70" y="300" width="170" height="50" as="geometry" />
        </mxCell>
        <mxCell id="Iq9K8GC8jxZtn9OJHGq8-19" value="gerenciaAutorizacoes.html" style="shape=module;align=left;spacingLeft=20;align=center;verticalAlign=top;" vertex="1" parent="Iq9K8GC8jxZtn9OJHGq8-1">
          <mxGeometry x="470" y="335" width="170" height="50" as="geometry" />
        </mxCell>
        <mxCell id="Iq9K8GC8jxZtn9OJHGq8-21" style="edgeStyle=orthogonalEdgeStyle;rounded=0;orthogonalLoop=1;jettySize=auto;html=1;entryX=0.5;entryY=0;entryDx=0;entryDy=0;" edge="1" parent="Iq9K8GC8jxZtn9OJHGq8-1" source="Iq9K8GC8jxZtn9OJHGq8-20" target="Iq9K8GC8jxZtn9OJHGq8-19">
          <mxGeometry relative="1" as="geometry" />
        </mxCell>
        <mxCell id="Iq9K8GC8jxZtn9OJHGq8-20" value="listaUsuarios.html" style="shape=module;align=left;spacingLeft=20;align=center;verticalAlign=top;" vertex="1" parent="Iq9K8GC8jxZtn9OJHGq8-1">
          <mxGeometry x="470" y="250" width="170" height="50" as="geometry" />
        </mxCell>
        <mxCell id="Iq9K8GC8jxZtn9OJHGq8-16" style="edgeStyle=orthogonalEdgeStyle;rounded=0;orthogonalLoop=1;jettySize=auto;html=1;exitX=0;exitY=1;exitDx=10;exitDy=0;exitPerimeter=0;entryX=0.5;entryY=0;entryDx=0;entryDy=0;" edge="1" parent="Iq9K8GC8jxZtn9OJHGq8-1" source="Iq9K8GC8jxZtn9OJHGq8-5" target="Iq9K8GC8jxZtn9OJHGq8-17">
          <mxGeometry relative="1" as="geometry">
            <mxPoint x="100" y="275" as="targetPoint" />
            <Array as="points">
              <mxPoint x="200" y="210" />
              <mxPoint x="200" y="243" />
              <mxPoint x="155" y="243" />
            </Array>
          </mxGeometry>
        </mxCell>
        <mxCell id="Iq9K8GC8jxZtn9OJHGq8-2" value="Componentes de lógica do négocio" style="swimlane;whiteSpace=wrap;html=1;" vertex="1" parent="1">
          <mxGeometry x="20" y="630" width="690" height="200" as="geometry" />
        </mxCell>
        <mxCell id="Iq9K8GC8jxZtn9OJHGq8-22" value="&lt;&lt;COM+&gt;&gt;&#xa;GestaoAndares" style="shape=module;align=left;spacingLeft=20;align=center;verticalAlign=top;" vertex="1" parent="Iq9K8GC8jxZtn9OJHGq8-2">
          <mxGeometry x="254" y="50" width="140" height="50" as="geometry" />
        </mxCell>
        <mxCell id="Iq9K8GC8jxZtn9OJHGq8-23" value="&lt;&lt;COM+&gt;&gt;&#xa;GestaoElevadores" style="shape=module;align=left;spacingLeft=20;align=center;verticalAlign=top;" vertex="1" parent="Iq9K8GC8jxZtn9OJHGq8-2">
          <mxGeometry x="380" y="130" width="140" height="50" as="geometry" />
        </mxCell>
        <mxCell id="Iq9K8GC8jxZtn9OJHGq8-24" value="&lt;&lt;COM+&gt;&gt;&#xa;GestaoAutorizacoes" style="shape=module;align=left;spacingLeft=20;align=center;verticalAlign=top;" vertex="1" parent="Iq9K8GC8jxZtn9OJHGq8-2">
          <mxGeometry x="500" y="50" width="140" height="50" as="geometry" />
        </mxCell>
        <mxCell id="Iq9K8GC8jxZtn9OJHGq8-25" value="&lt;&lt;COM+&gt;&gt;&#xa;GestaoLogs" style="shape=module;align=left;spacingLeft=20;align=center;verticalAlign=top;" vertex="1" parent="Iq9K8GC8jxZtn9OJHGq8-2">
          <mxGeometry y="130" width="140" height="50" as="geometry" />
        </mxCell>
        <mxCell id="Iq9K8GC8jxZtn9OJHGq8-26" value="&lt;&lt;COM+&gt;&gt;&#xa;GestaoUsuarios" style="shape=module;align=left;spacingLeft=20;align=center;verticalAlign=top;" vertex="1" parent="Iq9K8GC8jxZtn9OJHGq8-2">
          <mxGeometry x="100" y="50" width="140" height="50" as="geometry" />
        </mxCell>
        <mxCell id="Iq9K8GC8jxZtn9OJHGq8-3" value="Base de dados" style="swimlane;whiteSpace=wrap;html=1;" vertex="1" parent="1">
          <mxGeometry x="20" y="870" width="690" height="200" as="geometry" />
        </mxCell>
        <mxCell id="Iq9K8GC8jxZtn9OJHGq8-32" value="&lt;&lt;dbtable&gt;&gt;&#xa;registros" style="shape=module;align=left;spacingLeft=20;align=center;verticalAlign=top;" vertex="1" parent="Iq9K8GC8jxZtn9OJHGq8-3">
          <mxGeometry x="5" y="50" width="140" height="50" as="geometry" />
        </mxCell>
        <mxCell id="Iq9K8GC8jxZtn9OJHGq8-34" value="&lt;&lt;dbtable&gt;&gt;&#xa;hotel_andares" style="shape=module;align=left;spacingLeft=20;align=center;verticalAlign=top;" vertex="1" parent="Iq9K8GC8jxZtn9OJHGq8-3">
          <mxGeometry x="285" y="80" width="140" height="50" as="geometry" />
        </mxCell>
        <mxCell id="Iq9K8GC8jxZtn9OJHGq8-36" value="&lt;&lt;dbtable&gt;&gt;&#xa;hotel_elevadores" style="shape=module;align=left;spacingLeft=20;align=center;verticalAlign=top;" vertex="1" parent="Iq9K8GC8jxZtn9OJHGq8-3">
          <mxGeometry x="450" y="130" width="140" height="50" as="geometry" />
        </mxCell>
        <mxCell id="Iq9K8GC8jxZtn9OJHGq8-38" value="&lt;&lt;dbtable&gt;&gt;&#xa;hotel_users" style="shape=module;align=left;spacingLeft=20;align=center;verticalAlign=top;" vertex="1" parent="Iq9K8GC8jxZtn9OJHGq8-3">
          <mxGeometry x="145" y="140" width="140" height="50" as="geometry" />
        </mxCell>
        <mxCell id="Iq9K8GC8jxZtn9OJHGq8-40" value="&lt;&lt;dbtable&gt;&gt;&#xa;hotel_users_permission" style="shape=module;align=left;spacingLeft=20;align=center;verticalAlign=top;" vertex="1" parent="Iq9K8GC8jxZtn9OJHGq8-3">
          <mxGeometry x="530" y="40" width="150" height="50" as="geometry" />
        </mxCell>
        <mxCell id="Iq9K8GC8jxZtn9OJHGq8-15" style="edgeStyle=orthogonalEdgeStyle;rounded=0;orthogonalLoop=1;jettySize=auto;html=1;" edge="1" parent="1" source="Iq9K8GC8jxZtn9OJHGq8-5">
          <mxGeometry relative="1" as="geometry">
            <mxPoint x="320" y="340" as="targetPoint" />
          </mxGeometry>
        </mxCell>
        <mxCell id="Iq9K8GC8jxZtn9OJHGq8-18" style="edgeStyle=orthogonalEdgeStyle;rounded=0;orthogonalLoop=1;jettySize=auto;html=1;exitX=1;exitY=1;exitDx=0;exitDy=0;" edge="1" parent="1" source="Iq9K8GC8jxZtn9OJHGq8-5">
          <mxGeometry relative="1" as="geometry">
            <mxPoint x="560" y="340" as="targetPoint" />
            <Array as="points">
              <mxPoint x="370" y="320" />
              <mxPoint x="560" y="320" />
            </Array>
          </mxGeometry>
        </mxCell>
        <mxCell id="Iq9K8GC8jxZtn9OJHGq8-27" style="edgeStyle=orthogonalEdgeStyle;rounded=0;orthogonalLoop=1;jettySize=auto;html=1;entryX=0.5;entryY=0;entryDx=0;entryDy=0;" edge="1" parent="1" source="Iq9K8GC8jxZtn9OJHGq8-17" target="Iq9K8GC8jxZtn9OJHGq8-26">
          <mxGeometry relative="1" as="geometry">
            <Array as="points">
              <mxPoint x="185" y="680" />
            </Array>
          </mxGeometry>
        </mxCell>
        <mxCell id="Iq9K8GC8jxZtn9OJHGq8-28" style="edgeStyle=orthogonalEdgeStyle;rounded=0;orthogonalLoop=1;jettySize=auto;html=1;entryX=0.25;entryY=0;entryDx=0;entryDy=0;" edge="1" parent="1" source="Iq9K8GC8jxZtn9OJHGq8-13" target="Iq9K8GC8jxZtn9OJHGq8-25">
          <mxGeometry relative="1" as="geometry">
            <Array as="points">
              <mxPoint x="55" y="420" />
              <mxPoint x="55" y="420" />
            </Array>
          </mxGeometry>
        </mxCell>
        <mxCell id="Iq9K8GC8jxZtn9OJHGq8-29" style="edgeStyle=orthogonalEdgeStyle;rounded=0;orthogonalLoop=1;jettySize=auto;html=1;entryX=0.5;entryY=0;entryDx=0;entryDy=0;exitX=0.75;exitY=1;exitDx=0;exitDy=0;" edge="1" parent="1" source="Iq9K8GC8jxZtn9OJHGq8-8" target="Iq9K8GC8jxZtn9OJHGq8-22">
          <mxGeometry relative="1" as="geometry">
            <Array as="points">
              <mxPoint x="413" y="538" />
              <mxPoint x="344" y="538" />
            </Array>
          </mxGeometry>
        </mxCell>
        <mxCell id="Iq9K8GC8jxZtn9OJHGq8-30" style="edgeStyle=orthogonalEdgeStyle;rounded=0;orthogonalLoop=1;jettySize=auto;html=1;entryX=0.5;entryY=0;entryDx=0;entryDy=0;" edge="1" parent="1" source="Iq9K8GC8jxZtn9OJHGq8-19" target="Iq9K8GC8jxZtn9OJHGq8-24">
          <mxGeometry relative="1" as="geometry">
            <Array as="points">
              <mxPoint x="590" y="530" />
              <mxPoint x="590" y="530" />
            </Array>
          </mxGeometry>
        </mxCell>
        <mxCell id="Iq9K8GC8jxZtn9OJHGq8-31" style="edgeStyle=orthogonalEdgeStyle;rounded=0;orthogonalLoop=1;jettySize=auto;html=1;entryX=0.5;entryY=0;entryDx=0;entryDy=0;" edge="1" parent="1" source="Iq9K8GC8jxZtn9OJHGq8-12" target="Iq9K8GC8jxZtn9OJHGq8-23">
          <mxGeometry relative="1" as="geometry">
            <Array as="points">
              <mxPoint x="480" y="533" />
              <mxPoint x="470" y="533" />
            </Array>
          </mxGeometry>
        </mxCell>
        <mxCell id="Iq9K8GC8jxZtn9OJHGq8-33" style="edgeStyle=orthogonalEdgeStyle;rounded=0;orthogonalLoop=1;jettySize=auto;html=1;entryX=0.5;entryY=0;entryDx=0;entryDy=0;" edge="1" parent="1" source="Iq9K8GC8jxZtn9OJHGq8-25" target="Iq9K8GC8jxZtn9OJHGq8-32">
          <mxGeometry relative="1" as="geometry">
            <Array as="points">
              <mxPoint x="95" y="850" />
              <mxPoint x="95" y="850" />
            </Array>
          </mxGeometry>
        </mxCell>
        <mxCell id="Iq9K8GC8jxZtn9OJHGq8-35" style="edgeStyle=orthogonalEdgeStyle;rounded=0;orthogonalLoop=1;jettySize=auto;html=1;entryX=0.5;entryY=0;entryDx=0;entryDy=0;" edge="1" parent="1" source="Iq9K8GC8jxZtn9OJHGq8-22" target="Iq9K8GC8jxZtn9OJHGq8-34">
          <mxGeometry relative="1" as="geometry">
            <Array as="points">
              <mxPoint x="290" y="930" />
              <mxPoint x="375" y="930" />
            </Array>
          </mxGeometry>
        </mxCell>
        <mxCell id="Iq9K8GC8jxZtn9OJHGq8-37" style="edgeStyle=orthogonalEdgeStyle;rounded=0;orthogonalLoop=1;jettySize=auto;html=1;entryX=0.5;entryY=0;entryDx=0;entryDy=0;" edge="1" parent="1" source="Iq9K8GC8jxZtn9OJHGq8-23" target="Iq9K8GC8jxZtn9OJHGq8-36">
          <mxGeometry relative="1" as="geometry">
            <Array as="points">
              <mxPoint x="470" y="860" />
              <mxPoint x="540" y="860" />
            </Array>
          </mxGeometry>
        </mxCell>
        <mxCell id="Iq9K8GC8jxZtn9OJHGq8-39" style="edgeStyle=orthogonalEdgeStyle;rounded=0;orthogonalLoop=1;jettySize=auto;html=1;entryX=0.5;entryY=0;entryDx=0;entryDy=0;" edge="1" parent="1" source="Iq9K8GC8jxZtn9OJHGq8-26" target="Iq9K8GC8jxZtn9OJHGq8-38">
          <mxGeometry relative="1" as="geometry">
            <Array as="points">
              <mxPoint x="190" y="850" />
              <mxPoint x="235" y="850" />
            </Array>
          </mxGeometry>
        </mxCell>
        <mxCell id="Iq9K8GC8jxZtn9OJHGq8-41" style="edgeStyle=orthogonalEdgeStyle;rounded=0;orthogonalLoop=1;jettySize=auto;html=1;entryX=0.5;entryY=0;entryDx=0;entryDy=0;" edge="1" parent="1" source="Iq9K8GC8jxZtn9OJHGq8-24" target="Iq9K8GC8jxZtn9OJHGq8-40">
          <mxGeometry relative="1" as="geometry" />
        </mxCell>
      </root>
    </mxGraphModel>
  </diagram>
</mxfile>
